<?xml version="1.0" encoding="UTF-8" standalone="no"?>
<!-- Created with Inkscape (http://www.inkscape.org/) -->

<svg
   xmlns:dc="http://purl.org/dc/elements/1.1/"
   xmlns:cc="http://creativecommons.org/ns#"
   xmlns:rdf="http://www.w3.org/1999/02/22-rdf-syntax-ns#"
   xmlns:svg="http://www.w3.org/2000/svg"
   xmlns="http://www.w3.org/2000/svg"
   xmlns:sodipodi="http://sodipodi.sourceforge.net/DTD/sodipodi-0.dtd"
   xmlns:inkscape="http://www.inkscape.org/namespaces/inkscape"
   version="1.1"
   id="svg2"
   width="150.85582"
   height="256.51883"
   viewBox="0 0 150.85582 256.51883"
   sodipodi:docname="fo-pen.svg"
   inkscape:version="0.92.5 (2060ec1f9f, 2020-04-08)">
  <metadata
     id="metadata8">
    <rdf:RDF>
      <cc:Work
         rdf:about="">
        <dc:format>image/svg+xml</dc:format>
        <dc:type
           rdf:resource="http://purl.org/dc/dcmitype/StillImage" />
        <dc:title></dc:title>
      </cc:Work>
    </rdf:RDF>
  </metadata>
  <defs
     id="defs6" />
  <sodipodi:namedview
     pagecolor="#ffffff"
     bordercolor="#666666"
     borderopacity="1"
     objecttolerance="10"
     gridtolerance="10"
     guidetolerance="10"
     inkscape:pageopacity="0"
     inkscape:pageshadow="2"
     inkscape:window-width="2472"
     inkscape:window-height="1376"
     id="namedview4"
     showgrid="false"
     fit-margin-top="0"
     fit-margin-left="0"
     fit-margin-right="0"
     fit-margin-bottom="0"
     inkscape:zoom="1"
     inkscape:cx="50.719332"
     inkscape:cy="159.55574"
     inkscape:window-x="88"
     inkscape:window-y="27"
     inkscape:window-maximized="1"
     inkscape:current-layer="svg2" />
  <path
     style="fill:#e8cab8;fill-opacity:1;stroke-width:1.33333337"
     d="M 12.00536,256.36473 C 9.7827454,255.91012 9.0620694,254.54194 7.5950054,247.9918 3.8394434,231.224 1.3112264,193.61271 3.2124104,182.79365 3.8124554,179.37898 3.5012814,172.74553 2.5209154,168.05263 -4.9642796,132.22197 4.7306404,71.091653 24.829399,27.388797 34.500355,6.3602313 41.191545,-1.3611507 45.296095,3.7710123 c 3.25435,4.069212 3.15779,11.8620877 -0.33483,27.0108777 -6.11207,26.510325 -6.09742,44.61504 0.0711,87.80266 3.92862,27.50536 3.11279,40.57129 -2.95139,47.26735 -3.13875,3.4658 -3.22847,4.20236 -0.99054,8.13139 1.4433,2.53398 2.18187,6.41383 1.7862,9.38341 -1.00259,7.52499 -9.22586,23.32447 -19.34157,37.16124 -7.356224,10.06223 -9.006096,13.23292 -9.246295,17.76945 -0.160806,3.03698 0.582387,6.61172 1.651525,7.94384 1.954141,2.43482 1.844464,8.16076 -0.187553,9.79162 -0.599837,0.48142 -2.286149,0.63076 -3.747353,0.33189 z m 2.674185,-7.43395 c -2.261902,-2.81828 -3.603225,-11.08442 -2.399302,-14.78613 0.64144,-1.97226 5.309664,-9.25373 10.373802,-16.18106 10.47745,-14.33229 18.3699,-30.02001 18.30749,-36.38961 -0.0774,-7.90678 -8.38644,-14.08707 -18.464857,-13.7343 -6.387816,0.22357 -16.4709716,8.19327 -17.3565026,13.71853 l -0.615321,3.83922 2.804195,-0.9355 c 6.4567536,-2.15405 8.9178136,5.64841 2.6843356,8.5103 -2.0741776,0.95229 -2.8607616,3.68835 -3.5278456,12.27128 -0.47217,6.07516 -0.607346,10.84418 -0.300392,10.59783 0.306954,-0.24636 0.641277,1.98569 0.742936,4.96009 0.188145,5.50461 4.3686556,24.38182 6.6305456,29.94043 0.85181,2.09332 1.429053,2.54403 1.825821,1.42562 0.319115,-0.89951 0.0019,-2.35603 -0.704905,-3.2367 z"
     id="path817"
     inkscape:connector-curvature="0" />
  <path
     style="fill:none;fill-rule:evenodd;stroke:#e8cab8;stroke-width:16.60000038;stroke-linecap:round;stroke-linejoin:miter;stroke-miterlimit:4;stroke-dasharray:none;stroke-opacity:1"
     d="m 57.796265,19.765177 c 13.78858,11.760119 27.57716,13.206893 41.36574,0 20.454885,-17.2244647 30.194895,-13.2136527 43.310295,0"
     id="path823"
     inkscape:connector-curvature="0"
     sodipodi:nodetypes="ccc" />
  <path
     style="fill:none;fill-rule:evenodd;stroke:#e8cab8;stroke-width:16.60000038;stroke-linecap:round;stroke-linejoin:miter;stroke-miterlimit:4;stroke-dasharray:none;stroke-opacity:1"
     d="m 51.796265,75.765175 c 13.78858,11.760119 27.57716,13.206893 41.36574,0 20.454885,-17.224465 30.194895,-13.213653 43.310295,0"
     id="path823-6"
     inkscape:connector-curvature="0"
     sodipodi:nodetypes="ccc" />
</svg>
