<?xml version="1.0" encoding="UTF-8" standalone="no"?>
<!-- Created with Inkscape (http://www.inkscape.org/) -->

<svg
   xmlns:dc="http://purl.org/dc/elements/1.1/"
   xmlns:cc="http://creativecommons.org/ns#"
   xmlns:rdf="http://www.w3.org/1999/02/22-rdf-syntax-ns#"
   xmlns:svg="http://www.w3.org/2000/svg"
   xmlns="http://www.w3.org/2000/svg"
   xmlns:sodipodi="http://sodipodi.sourceforge.net/DTD/sodipodi-0.dtd"
   xmlns:inkscape="http://www.inkscape.org/namespaces/inkscape"
   version="1.1"
   id="svg2"
   width="606.13519"
   height="1028.7454"
   viewBox="0 0 606.13519 1028.7454"
   sodipodi:docname="fo-pen-bg.svg"
   inkscape:version="0.92.5 (2060ec1f9f, 2020-04-08)">
  <metadata
     id="metadata8">
    <rdf:RDF>
      <cc:Work
         rdf:about="">
        <dc:format>image/svg+xml</dc:format>
        <dc:type
           rdf:resource="http://purl.org/dc/dcmitype/StillImage" />
        <dc:title></dc:title>
      </cc:Work>
    </rdf:RDF>
  </metadata>
  <defs
     id="defs6" />
  <sodipodi:namedview
     pagecolor="#ffffff"
     bordercolor="#666666"
     borderopacity="1"
     objecttolerance="10"
     gridtolerance="10"
     guidetolerance="10"
     inkscape:pageopacity="0"
     inkscape:pageshadow="2"
     inkscape:window-width="2472"
     inkscape:window-height="1376"
     id="namedview4"
     showgrid="false"
     fit-margin-top="0"
     fit-margin-left="0"
     fit-margin-right="0"
     fit-margin-bottom="0"
     inkscape:zoom="1"
     inkscape:cx="307.68762"
     inkscape:cy="516.45697"
     inkscape:window-x="88"
     inkscape:window-y="27"
     inkscape:window-maximized="1"
     inkscape:current-layer="svg2" />
  <path
     style="fill:none;fill-opacity:1;stroke:#3c0000;stroke-width:5.33333349;stroke-opacity:0.25098041"
     d="m 50.727133,1025.4604 c -8.89045,-1.8185 -11.77316,-7.2912 -17.64141,-33.49176 -15.02225,-67.0712 -25.1351205,-217.51636 -17.53038,-260.7926 2.40018,-13.65868 1.15548,-40.19248 -2.76598,-58.96408 -29.94078,-143.32264 8.8389,-387.84391 89.233927,-562.65533 38.68383,-84.114262 65.44859,-114.9997915 81.86679,-94.471142 13.0174,16.27685 12.63116,47.44835 -1.33932,108.043512 -24.44828,106.0413 -24.38968,178.46016 0.2844,351.21064 15.71448,110.02144 12.45116,162.28516 -11.80556,189.0694 -12.555,13.8632 -12.91388,16.80944 -3.96216,32.52556 5.7732,10.13592 8.72748,25.65532 7.1448,37.53364 -4.01036,30.09996 -36.90344,93.29788 -77.366287,148.64496 -29.42489,40.24892 -36.02438,52.93168 -36.98518,71.0778 -0.64322,12.14792 2.32955,26.44688 6.6061,31.77536 7.81657,9.73928 7.37786,32.64304 -0.75021,39.16644 -2.39935,1.9257 -9.14459,2.5231 -14.98941,1.3276 z m 10.69674,-29.73584 c -9.0476,-11.27312 -14.4129,-44.33768 -9.5972,-59.14452 2.56576,-7.88904 21.23865,-37.01492 41.4952,-64.72424 41.909807,-57.32916 73.479607,-120.08004 73.229967,-145.55844 -0.3096,-31.62712 -33.54576,-56.34828 -73.859427,-54.9372 -25.55127,0.89428 -65.88389,32.77308 -69.42601,54.87412 l -2.46129,15.35688 11.21678,-3.742 c 25.82702,-8.6162 35.67126,22.59364 10.73734,34.0412 -8.29671,3.80916 -11.44304,14.7534 -14.11138,49.08512 -1.88868,24.30064 -2.42938,43.37672 -1.20157,42.39132 1.22782,-0.98544 2.56511,7.94276 2.97175,19.84036 0.75258,22.01844 17.47462,97.52728 26.52218,119.76174 3.40724,8.3733 5.71621,10.1761 7.30328,5.7025 1.27646,-3.5981 0.008,-9.42416 -2.81962,-12.94684 z"
     id="path817"
     inkscape:connector-curvature="0" />
  <path
     style="color:#000000;font-style:normal;font-variant:normal;font-weight:normal;font-stretch:normal;font-size:medium;line-height:normal;font-family:sans-serif;font-variant-ligatures:normal;font-variant-position:normal;font-variant-caps:normal;font-variant-numeric:normal;font-variant-alternates:normal;font-feature-settings:normal;text-indent:0;text-align:start;text-decoration:none;text-decoration-line:none;text-decoration-style:solid;text-decoration-color:#000000;letter-spacing:normal;word-spacing:normal;text-transform:none;writing-mode:lr-tb;direction:ltr;text-orientation:mixed;dominant-baseline:auto;baseline-shift:baseline;text-anchor:start;white-space:normal;shape-padding:0;clip-rule:nonzero;display:inline;overflow:visible;visibility:visible;opacity:1;isolation:auto;mix-blend-mode:normal;color-interpolation:sRGB;color-interpolation-filters:linearRGB;solid-color:#000000;solid-opacity:1;vector-effect:none;fill:#3c0000;fill-opacity:0.1882353;fill-rule:evenodd;stroke:none;stroke-width:66.40000153;stroke-linecap:round;stroke-linejoin:miter;stroke-miterlimit:4;stroke-dasharray:none;stroke-dashoffset:0;stroke-opacity:1;color-rendering:auto;image-rendering:auto;shape-rendering:auto;text-rendering:auto;enable-background:accumulate"
     d="m 492.11977,0.00143848 c -2.4526,-0.0128 -4.90228,0.0598 -7.3516,0.21875 C 450.47813,2.4462185 416.35493,21.343778 377.97132,53.665498 l -0.8125,0.6875 -0.77344,0.73438 c -17.86754,17.11377 -32.76104,24.845 -46.71093,27.29687 14.71271,-0.53792 30.14248,-6.87669 49.39843,-25.32031 l 0.6875,-0.66406 0.73438,-0.60938 c 39.48029,-33.2452 73.95597,-50.7084695 109.36717,-48.0312495 35.41124,2.6772295 61.85184,24.4993895 87,49.8359395 A 29.882989,29.882989 0 0 1 557.55725,108.82956 33.203321,33.203321 0 0 0 596.15881,55.673318 C 568.21641,27.521598 538.83273,3.2730085 499.48693,0.29831848 c -2.45908,-0.18592 -4.9146,-0.28408 -7.36716,-0.29688 z M 234.19789,45.571748 a 33.203321,33.203321 0 0 0 -21.85157,58.750002 c 31.22303,26.62975 65.82021,44.39688 103.40625,45.38281 37.13674,0.97416 73.66542,-15.62698 105.40624,-45.59374 -0.14336,0.12039 -0.27804,0.22263 -0.42188,0.34374 l 1.57812,-1.41406 c -0.3826,0.36647 -0.7722,0.70776 -1.15624,1.07032 28.81404,-24.196752 48.42572,-33.959882 62.17188,-36.757822 -12.41656,-0.14962 -31.82016,6.82706 -64.08592,33.945322 -28.53827,26.89724 -61.36687,41.79735 -94.7422,40.92187 -33.82744,-0.88734 -64.96959,-16.87697 -93.07031,-40.84375 a 29.882989,29.882989 0 0 1 16.10937,-52.687502 33.203321,33.203321 0 0 0 -13.34374,-3.11719 z m 185.04688,55.726572 c 0.38656,-0.36436 0.77904,-0.70937 1.16404,-1.07813 l -1.42188,1.28125 c 0.0899,-0.0757 0.16816,-0.12776 0.25784,-0.20312 z"
     id="path823"
     inkscape:connector-curvature="0" />
  <path
     inkscape:connector-curvature="0"
     style="color:#000000;font-style:normal;font-variant:normal;font-weight:normal;font-stretch:normal;font-size:medium;line-height:normal;font-family:sans-serif;font-variant-ligatures:normal;font-variant-position:normal;font-variant-caps:normal;font-variant-numeric:normal;font-variant-alternates:normal;font-feature-settings:normal;text-indent:0;text-align:start;text-decoration:none;text-decoration-line:none;text-decoration-style:solid;text-decoration-color:#000000;letter-spacing:normal;word-spacing:normal;text-transform:none;writing-mode:lr-tb;direction:ltr;text-orientation:mixed;dominant-baseline:auto;baseline-shift:baseline;text-anchor:start;white-space:normal;shape-padding:0;clip-rule:nonzero;display:inline;overflow:visible;visibility:visible;opacity:1;isolation:auto;mix-blend-mode:normal;color-interpolation:sRGB;color-interpolation-filters:linearRGB;solid-color:#000000;solid-opacity:1;vector-effect:none;fill:#3c0000;fill-opacity:0.1882353;fill-rule:evenodd;stroke:none;stroke-width:66.40000153;stroke-linecap:round;stroke-linejoin:miter;stroke-miterlimit:4;stroke-dasharray:none;stroke-dashoffset:0;stroke-opacity:1;color-rendering:auto;image-rendering:auto;shape-rendering:auto;text-rendering:auto;enable-background:accumulate"
     d="m 468.11977,224.00144 c -2.4526,-0.0128 -4.90228,0.0598 -7.3516,0.21876 -34.29004,2.22602 -68.41324,21.12358 -106.79685,53.44531 l -0.8125,0.6875 -0.77344,0.73437 c -17.86754,17.11377 -32.76103,24.845 -46.71093,27.29687 14.71271,-0.53792 30.14248,-6.87668 49.39843,-25.32031 l 0.6875,-0.66406 0.73438,-0.60937 c 39.48029,-33.24521 73.95597,-50.70848 109.36717,-48.03125 35.41124,2.67722 61.85184,24.49938 87,49.83594 a 29.882989,29.882989 0 0 1 -19.30468,51.23437 33.203321,33.203321 0 0 0 38.60156,-53.15625 c -27.9424,-28.15172 -57.32608,-52.4003 -96.67188,-55.375 -2.45908,-0.18592 -4.9146,-0.28408 -7.36716,-0.29688 z m -257.92188,45.57031 a 33.203321,33.203321 0 0 0 -21.85157,58.75 c 31.22303,26.62975 65.82021,44.39688 103.40625,45.38281 37.13674,0.97415 73.66542,-15.62699 105.40624,-45.59375 -0.1432,0.1204 -0.278,0.22264 -0.42188,0.34376 l 1.57812,-1.41406 c -0.3824,0.36648 -0.7722,0.70776 -1.15624,1.07031 28.81404,-24.19674 48.42572,-33.95987 62.17188,-36.75781 -12.41656,-0.14964 -31.82016,6.82706 -64.08592,33.94531 -28.53827,26.89723 -61.36687,41.79735 -94.7422,40.92187 -33.82744,-0.88735 -64.96959,-16.87698 -93.07031,-40.84376 a 29.882989,29.882989 0 0 1 16.10937,-52.68749 33.203321,33.203321 0 0 0 -13.34374,-3.11719 z m 185.04688,55.72656 c 0.3864,-0.36436 0.77904,-0.70937 1.16404,-1.07812 l -1.42188,1.28124 c 0.09,-0.0757 0.168,-0.12776 0.258,-0.20312 z"
     id="path823-3" />
</svg>
